<mxfile host="app.diagrams.net" modified="2020-11-20T02:19:30.124Z" agent="5.0 (Windows NT 10.0; Win64; x64) AppleWebKit/537.36 (KHTML, like Gecko) Chrome/85.0.4183.121 Safari/537.36" etag="O3ySBjqcmhlg3TBAWxAP" version="13.10.0" type="github">
  <diagram id="5jlkh1vB7oCjUuGCAA8b" name="Page-1">
    <mxGraphModel dx="813" dy="454" grid="1" gridSize="10" guides="1" tooltips="1" connect="1" arrows="1" fold="1" page="1" pageScale="1" pageWidth="850" pageHeight="1100" math="0" shadow="0">
      <root>
        <mxCell id="0" />
        <mxCell id="1" parent="0" />
        <mxCell id="0KiW9_K8kbpAwRVkYxgG-3" value="" style="edgeStyle=orthogonalEdgeStyle;rounded=0;orthogonalLoop=1;jettySize=auto;html=1;" edge="1" parent="1" source="0KiW9_K8kbpAwRVkYxgG-1" target="0KiW9_K8kbpAwRVkYxgG-2">
          <mxGeometry relative="1" as="geometry" />
        </mxCell>
        <mxCell id="0KiW9_K8kbpAwRVkYxgG-5" value="" style="edgeStyle=orthogonalEdgeStyle;rounded=0;orthogonalLoop=1;jettySize=auto;html=1;" edge="1" parent="1" source="0KiW9_K8kbpAwRVkYxgG-1" target="0KiW9_K8kbpAwRVkYxgG-4">
          <mxGeometry relative="1" as="geometry" />
        </mxCell>
        <mxCell id="0KiW9_K8kbpAwRVkYxgG-1" value="ESP" style="rounded=1;whiteSpace=wrap;html=1;" vertex="1" parent="1">
          <mxGeometry x="80" y="270" width="120" height="60" as="geometry" />
        </mxCell>
        <mxCell id="0KiW9_K8kbpAwRVkYxgG-2" value="int syscall code" style="whiteSpace=wrap;html=1;rounded=1;" vertex="1" parent="1">
          <mxGeometry x="80" y="110" width="120" height="60" as="geometry" />
        </mxCell>
        <mxCell id="0KiW9_K8kbpAwRVkYxgG-7" value="" style="edgeStyle=orthogonalEdgeStyle;rounded=0;orthogonalLoop=1;jettySize=auto;html=1;" edge="1" parent="1" source="0KiW9_K8kbpAwRVkYxgG-4" target="0KiW9_K8kbpAwRVkYxgG-6">
          <mxGeometry relative="1" as="geometry" />
        </mxCell>
        <mxCell id="0KiW9_K8kbpAwRVkYxgG-9" value="" style="edgeStyle=orthogonalEdgeStyle;rounded=0;orthogonalLoop=1;jettySize=auto;html=1;" edge="1" parent="1" source="0KiW9_K8kbpAwRVkYxgG-4" target="0KiW9_K8kbpAwRVkYxgG-8">
          <mxGeometry relative="1" as="geometry" />
        </mxCell>
        <mxCell id="0KiW9_K8kbpAwRVkYxgG-4" value="ESP+4" style="rounded=1;whiteSpace=wrap;html=1;" vertex="1" parent="1">
          <mxGeometry x="280" y="270" width="120" height="60" as="geometry" />
        </mxCell>
        <mxCell id="0KiW9_K8kbpAwRVkYxgG-11" value="" style="edgeStyle=orthogonalEdgeStyle;rounded=0;orthogonalLoop=1;jettySize=auto;html=1;" edge="1" parent="1" source="0KiW9_K8kbpAwRVkYxgG-6" target="0KiW9_K8kbpAwRVkYxgG-10">
          <mxGeometry relative="1" as="geometry" />
        </mxCell>
        <mxCell id="0KiW9_K8kbpAwRVkYxgG-6" value="ESP+8&lt;br&gt;0x208" style="whiteSpace=wrap;html=1;rounded=1;" vertex="1" parent="1">
          <mxGeometry x="480" y="270" width="120" height="60" as="geometry" />
        </mxCell>
        <mxCell id="0KiW9_K8kbpAwRVkYxgG-8" value="int FD" style="rounded=1;whiteSpace=wrap;html=1;" vertex="1" parent="1">
          <mxGeometry x="280" y="110" width="120" height="60" as="geometry" />
        </mxCell>
        <mxCell id="0KiW9_K8kbpAwRVkYxgG-12" value="" style="edgeStyle=orthogonalEdgeStyle;rounded=0;orthogonalLoop=1;jettySize=auto;html=1;exitX=0.867;exitY=-0.071;exitDx=0;exitDy=0;exitPerimeter=0;entryX=0.182;entryY=1.014;entryDx=0;entryDy=0;entryPerimeter=0;" edge="1" parent="1" source="0KiW9_K8kbpAwRVkYxgG-13" target="0KiW9_K8kbpAwRVkYxgG-10">
          <mxGeometry relative="1" as="geometry">
            <mxPoint x="440" y="210" as="targetPoint" />
            <Array as="points">
              <mxPoint x="490" y="189" />
              <mxPoint x="490" y="190" />
              <mxPoint x="502" y="190" />
            </Array>
          </mxGeometry>
        </mxCell>
        <mxCell id="0KiW9_K8kbpAwRVkYxgG-10" value="Void* Buffer&lt;br&gt;" style="whiteSpace=wrap;html=1;rounded=1;" vertex="1" parent="1">
          <mxGeometry x="480" y="110" width="120" height="60" as="geometry" />
        </mxCell>
        <mxCell id="0KiW9_K8kbpAwRVkYxgG-13" value="0x008" style="rounded=1;whiteSpace=wrap;html=1;" vertex="1" parent="1">
          <mxGeometry x="395" y="190" width="60" height="20" as="geometry" />
        </mxCell>
        <mxCell id="0KiW9_K8kbpAwRVkYxgG-16" value="" style="edgeStyle=orthogonalEdgeStyle;rounded=0;orthogonalLoop=1;jettySize=auto;html=1;" edge="1" parent="1" source="0KiW9_K8kbpAwRVkYxgG-14" target="0KiW9_K8kbpAwRVkYxgG-10">
          <mxGeometry relative="1" as="geometry">
            <Array as="points">
              <mxPoint x="600" y="170" />
            </Array>
          </mxGeometry>
        </mxCell>
        <mxCell id="0KiW9_K8kbpAwRVkYxgG-14" value="0x010" style="rounded=1;whiteSpace=wrap;html=1;" vertex="1" parent="1">
          <mxGeometry x="570" y="190" width="60" height="20" as="geometry" />
        </mxCell>
        <mxCell id="0KiW9_K8kbpAwRVkYxgG-17" value="Deference 208 get void* buffer.&amp;nbsp; not only check the address of ESP + 8, but also need check address of the buffer. Who knows where the ESP+8 pointing to" style="text;html=1;strokeColor=none;fillColor=none;align=center;verticalAlign=middle;whiteSpace=wrap;rounded=0;" vertex="1" parent="1">
          <mxGeometry x="600" y="270" width="240" height="50" as="geometry" />
        </mxCell>
        <mxCell id="0KiW9_K8kbpAwRVkYxgG-19" value="Virtual memory (has n pages)" style="rounded=1;whiteSpace=wrap;html=1;" vertex="1" parent="1">
          <mxGeometry x="40" y="460" width="190" height="280" as="geometry" />
        </mxCell>
        <mxCell id="0KiW9_K8kbpAwRVkYxgG-20" value="Page1&lt;br&gt;&amp;nbsp;(0x0000 - 0x1000)" style="rounded=0;whiteSpace=wrap;html=1;" vertex="1" parent="1">
          <mxGeometry x="75" y="470" width="115" height="30" as="geometry" />
        </mxCell>
        <mxCell id="0KiW9_K8kbpAwRVkYxgG-22" value="Page2&lt;br&gt;(0x1000 - 0x2000)" style="rounded=0;whiteSpace=wrap;html=1;" vertex="1" parent="1">
          <mxGeometry x="75" y="510" width="115" height="30" as="geometry" />
        </mxCell>
        <mxCell id="0KiW9_K8kbpAwRVkYxgG-23" value="" style="rounded=0;whiteSpace=wrap;html=1;" vertex="1" parent="1">
          <mxGeometry x="75" y="550" width="115" height="30" as="geometry" />
        </mxCell>
        <mxCell id="0KiW9_K8kbpAwRVkYxgG-24" value="" style="rounded=0;whiteSpace=wrap;html=1;" vertex="1" parent="1">
          <mxGeometry x="75" y="680" width="115" height="30" as="geometry" />
        </mxCell>
        <mxCell id="0KiW9_K8kbpAwRVkYxgG-27" value="Physical memory (has n frames)" style="rounded=1;whiteSpace=wrap;html=1;" vertex="1" parent="1">
          <mxGeometry x="310" y="460" width="190" height="280" as="geometry" />
        </mxCell>
        <mxCell id="0KiW9_K8kbpAwRVkYxgG-28" value="Frame1&lt;br&gt;&amp;nbsp;(0x3000 - 0x4000)" style="rounded=0;whiteSpace=wrap;html=1;" vertex="1" parent="1">
          <mxGeometry x="347.5" y="470" width="115" height="30" as="geometry" />
        </mxCell>
        <mxCell id="0KiW9_K8kbpAwRVkYxgG-29" value="Frame2&lt;br&gt;&amp;nbsp;(0x0000 - 0x1000)" style="rounded=0;whiteSpace=wrap;html=1;" vertex="1" parent="1">
          <mxGeometry x="347.5" y="510" width="115" height="30" as="geometry" />
        </mxCell>
        <mxCell id="0KiW9_K8kbpAwRVkYxgG-30" value="1 thread can has many pages" style="text;html=1;strokeColor=none;fillColor=none;align=center;verticalAlign=middle;whiteSpace=wrap;rounded=0;" vertex="1" parent="1">
          <mxGeometry x="167.5" y="430" width="180" height="30" as="geometry" />
        </mxCell>
        <mxCell id="0KiW9_K8kbpAwRVkYxgG-31" value="Boundary2 testcase explain - Eg. thread_1 has page_1 and page_2. &quot;echo&quot; filename which push to esp. lets &quot;e&quot; push to 0x500, &quot;c&quot; push to 0x1001, &quot;h&quot; push to 0x1500, &quot;o&quot; push to 0x1250. It&#39;s correct since all addresses are within page_1 and page_2" style="text;html=1;strokeColor=none;fillColor=none;align=center;verticalAlign=middle;whiteSpace=wrap;rounded=0;" vertex="1" parent="1">
          <mxGeometry x="80" y="750" width="390" height="120" as="geometry" />
        </mxCell>
      </root>
    </mxGraphModel>
  </diagram>
</mxfile>
